SplineFontDB: 3.2
FontName: HershoMono-Regular
FullName: Hersho Mono Regular
FamilyName: Hersho Mono
Weight: Regular
Copyright: Copyright (c) 2023, Sim Domingo
UComments: "2023-9-4: Created with FontForge (http://fontforge.org)"
Version: 001.000
ItalicAngle: 0
UnderlinePosition: 48.8281
UnderlineWidth: 24.4141
Ascent: 834
Descent: 166
InvalidEm: 0
LayerCount: 2
Layer: 0 0 "Back" 1
Layer: 1 0 "Fore" 0
HasVMetrics: 1
XUID: [1021 39 -546803219 6476244]
StyleMap: 0x0000
FSType: 0
OS2Version: 0
OS2_WeightWidthSlopeOnly: 0
OS2_UseTypoMetrics: 1
CreationTime: 1693767096
ModificationTime: 315532800
PfmFamily: 17
TTFWeight: 400
TTFWidth: 5
LineGap: 76
VLineGap: 0
OS2TypoAscent: 0
OS2TypoAOffset: 1
OS2TypoDescent: 0
OS2TypoDOffset: 1
OS2TypoLinegap: 76
OS2WinAscent: 0
OS2WinAOffset: 1
OS2WinDescent: 0
OS2WinDOffset: 1
HheadAscent: 0
HheadAOffset: 1
HheadDescent: 0
HheadDOffset: 1
OS2Vendor: 'PfEd'
MarkAttachClasses: 1
DEI: 91125
LangName: 1033
Encoding: Custom
UnicodeInterp: none
NameList: AGL For New Fonts
DisplaySize: -48
AntiAlias: 1
FitToEm: 0
WinInfo: 27 27 9
BeginPrivate: 0
EndPrivate
TeXData: 1 0 0 522190 261095 174063 489685 1048576 174063 783286 444596 497025 792723 393216 433062 380633 303038 157286 324010 404750 52429 2506097 1059062 262144
BeginChars: 266 262

StartChar: o
Encoding: 111 111 0
AltUni2: 0000ba.ffffffff.0
Width: 415
VWidth: 693
Flags: W
HStem: 0 90<162.367 254.613> 252 82<161.594 254.406>
VStem: 70 70<112.295 229.852> 276 70<109.94 229.852>
LayerCount: 2
Fore
SplineSet
276 170 m 0
 276 218 246 252 208 252 c 0
 170 252 140 218 140 170 c 0
 140 122 172 90 208 90 c 0
 244 90 276 120 276 170 c 0
70 170 m 0
 70 268 128 334 208 334 c 0
 288 334 346 268 346 170 c 0
 346 72 288 0 208 0 c 0
 130 0 70 72 70 170 c 0
EndSplineSet
Validated: 1
EndChar

StartChar: n
Encoding: 110 110 1
Width: 415
VWidth: 693
Flags: W
HStem: 0 21G<70 140 276 346> 0 21G<70 140 276 346> 272 64<147.223 266.388>
VStem: 70 70<0 240 318 336> 276 70<0 238>
LayerCount: 2
Fore
SplineSet
70 336 m 1xb8
 140 336 l 1
 140 318 l 1
 160 328 198 336 224 336 c 0
 248 336 346 314 346 244 c 2
 346 0 l 1
 276 0 l 1
 276 238 l 1
 276 238 262 272 208 272 c 0
 154 272 140 240 140 240 c 1
 140 0 l 1
 70 0 l 1
 70 112 70 226 70 336 c 1xb8
EndSplineSet
Validated: 1
EndChar

StartChar: h
Encoding: 104 104 2
Width: 415
VWidth: 693
Flags: W
HStem: 0 21G<70 140 276 346> 0 21G<70 140 276 346> 264 70<144.848 272.403>
VStem: 70 70<0 254.86 318 554> 276 70<0 253.58>
LayerCount: 2
Fore
SplineSet
70 554 m 1xb8
 140 554 l 1
 140 318 l 1
 160 328 192 334 218 334 c 0
 244 334 344 316 344 240 c 2
 346 0 l 1
 276 0 l 1
 278 228 l 2
 278 246 252 264 218 264 c 0
 182 264 140 256 140 228 c 2
 140 0 l 1
 70 0 l 1
 70 554 l 1xb8
EndSplineSet
Validated: 1
EndChar

StartChar: i
Encoding: 105 105 4
Width: 415
VWidth: 693
Flags: W
HStem: 0 70<240 346> 248 70<70 174> 364 94<159.749 234.208>
VStem: 150 92<371.167 449.141> 170 176<2.8125 70> 174 68<70 248>
LayerCount: 2
Fore
SplineSet
70 248 m 1xe4
 70 318 l 1
 208 318 l 2
 228 318 242 302 242 282 c 0xe4
 242 126 240 80 240 70 c 1
 346 70 l 1
 346 0 l 1
 206 0 l 2
 186 0 170 16 170 36 c 2xe8
 174 248 l 1
 70 248 l 1xe4
204 458 m 0
 226 454 242 436 242 412 c 0
 242 386 222 364 196 364 c 0
 194 364 188 364 186 364 c 0
 166 368 150 382 150 406 c 0
 150 408 150 408 150 410 c 0xf0
 152 434 172 458 196 458 c 0
 198 458 202 458 204 458 c 0
EndSplineSet
Validated: 1
EndChar

StartChar: j
Encoding: 106 106 5
Width: 415
VWidth: 693
Flags: W
HStem: -140 74<159.013 262.236> 248 70<222 276> 364 94<263.704 338.749>
VStem: 70 74<-51.638 18> 222 122<248 315.265> 256 90<370.631 451.095> 276 68<-54.6348 248>
LayerCount: 2
Fore
SplineSet
208 -140 m 0xf2
 112 -140 72 -80 70 18 c 1
 144 18 l 1
 144 -22 150 -66 210 -66 c 0
 268 -66 276 -52 276 104 c 0
 276 144 276 190 276 248 c 1xf2
 222 248 l 1
 222 288 222 318 222 318 c 1
 310 318 l 2
 328 318 344 300 344 282 c 0xf8
 344 220 344 168 344 122 c 0
 344 -104 332 -140 208 -140 c 0xf2
308 458 m 0
 330 454 346 434 346 410 c 0
 346 384 326 364 300 364 c 0
 298 364 292 364 290 364 c 0
 268 368 256 384 256 408 c 0
 256 410 256 410 256 412 c 0xf4
 258 438 276 458 300 458 c 0
 302 458 306 458 308 458 c 0
EndSplineSet
Validated: 1
EndChar

StartChar: s
Encoding: 115 115 6
Width: 415
VWidth: 693
Flags: W
HStem: 2 54<156.732 257.308> 136 58<166.61 264.75> 272 60<164.988 256.432>
VStem: 70 78<66.3539 100> 82 78<200.063 265.592> 268 78<69.0573 129.247 220 258.647>
LayerCount: 2
Fore
SplineSet
204 194 m 0xec
 240 194 346 170 346 102 c 0
 346 46 292 2 204 2 c 0
 142 2 70 46 70 100 c 1
 148 100 l 1xf4
 148 72 182 56 204 56 c 0
 236 56 268 76 268 102 c 0
 268 126 246 136 204 136 c 0
 148 136 82 190 82 230 c 0
 82 286 144 332 204 332 c 0
 268 332 346 290 346 220 c 1
 268 220 l 1
 268 258 226 272 204 272 c 0
 178 272 160 252 160 232 c 0
 160 214 178 194 204 194 c 0xec
EndSplineSet
Validated: 1
EndChar

StartChar: v
Encoding: 118 118 7
Width: 415
VWidth: 693
Flags: W
HStem: 0 21G<167.81 246.386> 0 21G<167.81 246.386> 316 20G<70 145.763 271.966 346>
VStem: 70 276
LayerCount: 2
Fore
SplineSet
174 0 m 1xb0
 70 336 l 1
 140 336 l 1
 208 100 l 1
 278 332 l 1
 346 332 l 1
 240 0 l 1
 174 0 l 1xb0
EndSplineSet
Validated: 1
EndChar

StartChar: w
Encoding: 119 119 8
Width: 415
VWidth: 693
Flags: W
HStem: 0 21G<82.2651 173 251 339.373> 0 21G<82.2651 173 251 339.373> 312 20G<24 102.521 175.798 240.37 315.479 392>
VStem: 24 76<294.516 332> 318 74<290.5 332>
LayerCount: 2
Fore
SplineSet
24 332 m 1xb8
 100 332 l 1
 130 94 l 1
 180 332 l 1
 236 332 l 1
 288 94 l 1
 318 332 l 1
 392 332 l 1
 336 0 l 1
 254 0 l 1
 248 30 216 180 210 210 c 1
 206 180 176 30 170 0 c 1
 86 0 l 1
 24 332 l 1xb8
EndSplineSet
Validated: 1
EndChar

StartChar: d
Encoding: 100 100 9
Width: 415
VWidth: 693
Flags: W
HStem: 0 90<161.207 255.949> 252 82<161.791 254.836> 536 20G<278 346>
VStem: 70 70<110.024 229.755> 278 68<2 24 112.75 228.25 312 556>
LayerCount: 2
Fore
SplineSet
70 170 m 0
 70 266 128 334 208 334 c 0
 234 334 258 326 278 312 c 1
 278 556 l 1
 346 556 l 1
 346 2 l 1
 278 0 l 1
 278 24 l 1
 258 8 234 0 208 0 c 0
 128 0 70 72 70 170 c 0
276 170 m 0
 276 216 248 252 208 252 c 0
 168 252 140 216 140 170 c 0
 140 124 168 90 208 90 c 0
 248 90 276 124 276 170 c 0
EndSplineSet
Validated: 1
EndChar

StartChar: p
Encoding: 112 112 10
Width: 415
VWidth: 693
Flags: W
HStem: 0 82<160.051 254.793> 242 90<160.051 254.793>
VStem: 70 68<-140 20 104.75 219.25 310 332> 276 70<102.915 221.976>
LayerCount: 2
Fore
SplineSet
346 162 m 0
 346 66 288 0 208 0 c 0
 182 0 158 6 138 20 c 1
 138 -140 l 1
 70 -140 l 1
 70 332 l 1
 138 332 l 1
 138 310 l 1
 158 326 182 332 208 332 c 0
 288 332 346 260 346 162 c 0
140 162 m 0
 140 116 168 82 208 82 c 0
 248 82 276 116 276 162 c 0
 276 208 248 242 208 242 c 0
 168 242 140 208 140 162 c 0
EndSplineSet
Validated: 1
EndChar

StartChar: b
Encoding: 98 98 11
Width: 415
VWidth: 693
Flags: W
HStem: 0 90<160.051 254.793> 252 82<161.164 254.209> 536 20G<70 138>
VStem: 70 68<2 24 112.75 228.25 312 556> 276 70<110.024 229.755>
LayerCount: 2
Fore
SplineSet
346 170 m 0
 346 72 288 0 208 0 c 0
 182 0 158 8 138 24 c 1
 138 0 l 1
 70 2 l 1
 70 556 l 1
 138 556 l 1
 138 312 l 1
 158 326 182 334 208 334 c 0
 288 334 346 266 346 170 c 0
140 170 m 0
 140 124 168 90 208 90 c 0
 248 90 276 124 276 170 c 0
 276 216 248 252 208 252 c 0
 168 252 140 216 140 170 c 0
EndSplineSet
Validated: 1
EndChar

StartChar: q
Encoding: 113 113 12
Width: 415
VWidth: 693
Flags: W
HStem: 0 82<161.791 254.836> 244 90<161.207 255.949>
VStem: 70 70<104.245 223.976> 278 68<-138 22 105.75 221.25 310 332>
LayerCount: 2
Fore
SplineSet
70 164 m 0
 70 262 128 334 208 334 c 0
 234 334 258 326 278 310 c 1
 278 334 l 1
 346 332 l 1
 346 -140 l 1
 278 -138 l 1
 278 22 l 1
 258 8 234 0 208 0 c 0
 128 0 70 68 70 164 c 0
276 164 m 0
 276 210 248 244 208 244 c 0
 168 244 140 210 140 164 c 0
 140 118 168 82 208 82 c 0
 248 82 276 118 276 164 c 0
EndSplineSet
Validated: 1
EndChar

StartChar: g
Encoding: 103 103 13
Width: 415
VWidth: 693
Flags: W
HStem: -140 72<159.344 268.013> -20 20G<70 144> -20 20G<70 144> 0 90<162.39 254.213> 252 82<159.018 249.808>
VStem: 70 70<-47.5366 0 114.016 233.746> 276 70<-56.0205 20 111.053 225.524 316 332>
LayerCount: 2
Fore
SplineSet
70 176 m 0x9e
 70 272 128 334 208 334 c 0
 232 334 256 328 276 316 c 1
 276 332 l 1
 346 332 l 1
 346 332 346 262 346 176 c 0
 346 160 346 146 346 132 c 0
 346 -124 342 -140 202 -140 c 0
 100 -140 70 -34 70 0 c 1
 144 0 l 1xce
 144 -44 172 -68 208 -68 c 0
 244 -68 274 -58 274 -26 c 2
 276 20 l 1
 256 8 232 0 208 0 c 0
 128 0 70 78 70 176 c 0x9e
272 176 m 0
 272 214 240 252 208 252 c 0
 168 252 140 222 140 176 c 0
 140 130 168 90 208 90 c 0x9e
 262 90 272 142 272 176 c 0
EndSplineSet
Validated: 1
EndChar

StartChar: e
Encoding: 101 101 14
Width: 415
VWidth: 693
Flags: W
HStem: 0 76<170.533 300.886> 154 64<146 270> 282 76<165.851 254.849>
VStem: 70 76<102.287 154 218 260.125> 270 76<218 265.911>
LayerCount: 2
Fore
SplineSet
208 76 m 0
 232 76 270 84 296 96 c 1
 332 36 l 1
 304 16 252 0 208 0 c 0
 116 0 70 66 70 198 c 0
 70 286 132 358 208 358 c 0
 300 358 346 290 346 154 c 1
 146 154 l 1
 146 118 178 76 208 76 c 0
270 218 m 1
 270 254 242 282 208 282 c 0
 178 282 146 248 146 218 c 1
 270 218 l 1
EndSplineSet
Validated: 1
EndChar

StartChar: c
Encoding: 99 99 15
Width: 415
VWidth: 693
Flags: W
HStem: 0 90<166.743 281.869> 252 82<166.357 282.69>
VStem: 70 74<113.608 229.181>
LayerCount: 2
Fore
SplineSet
346 258 m 1025
278 222 m 1025
342 72 m 1
 316 28 272 0 218 0 c 0
 134 0 70 72 70 170 c 0
 70 268 134 334 218 334 c 0
 274 334 320 306 346 258 c 1
 346 258 294 232 278 222 c 1
 264 240 242 252 218 252 c 0
 176 252 144 218 144 170 c 0
 144 122 178 90 218 90 c 0
 238 90 256 96 270 112 c 1
 302 96 308 94 342 72 c 1
EndSplineSet
Validated: 1
EndChar

StartChar: a
Encoding: 97 97 16
AltUni2: 0000aa.ffffffff.0
Width: 415
VWidth: 693
Flags: W
HStem: 0 54<151.893 261.337> 150 50<149.347 266.61> 260 68<151.614 260.095>
VStem: 70 70<67.7906 137.779> 276 70<0 12 68.6197 139.193 190 242.72>
LayerCount: 2
Fore
SplineSet
346 236 m 0
 346 222 346 102 346 102 c 1
 346 0 l 1
 276 0 l 1
 276 12 l 1
 256 4 232 0 208 0 c 0
 128 0 70 44 70 102 c 0
 70 160 128 200 208 200 c 0
 234 200 256 196 276 190 c 1
 276 222 l 1
 254 252 228 260 208 260 c 0
 170 260 140 228 138 228 c 2
 110 252 l 1
 94 264 l 1
 94 272 150 328 212 328 c 0
 268 328 344 284 346 236 c 0
208 150 m 0
 164 150 140 128 140 104 c 0
 140 74 172 54 208 54 c 0
 246 54 274 78 274 106 c 0
 274 134 248 150 208 150 c 0
EndSplineSet
Validated: 1
EndChar

StartChar: x
Encoding: 120 120 17
Width: 415
VWidth: 693
Flags: W
HStem: 0 21G<70 151.525> 0 21G<70 151.525> 316 20G<70 151.333 266.136 346>
VStem: 70 276
LayerCount: 2
Fore
SplineSet
172 168 m 1xb0
 70 336 l 1
 140 336 l 1
 208 216 l 1
 278 334 l 1
 346 334 l 1
 240 168 l 1
 346 2 l 1
 278 2 l 1
 208 118 l 1
 140 0 l 1
 70 0 l 1
 172 168 l 1xb0
EndSplineSet
Validated: 1
EndChar

StartChar: y
Encoding: 121 121 18
Width: 415
VWidth: 693
Flags: W
HStem: 316 20G<70 145.763 271.966 346>
VStem: 70 276
LayerCount: 2
Fore
SplineSet
174 4 m 1
 70 336 l 1
 140 336 l 1
 208 100 l 1
 278 332 l 1
 346 332 l 1
 200 -140 l 1
 132 -140 l 1
 174 4 l 1
EndSplineSet
Validated: 1
EndChar

StartChar: u
Encoding: 117 117 19
Width: 415
VWidth: 693
Flags: W
HStem: 0 64<149.973 269.093> 316 20G<70 140 276 346>
VStem: 70 70<98 336> 276 70<0 18 96 336>
LayerCount: 2
Fore
SplineSet
346 0 m 1
 276 0 l 1
 276 18 l 1
 256 8 218 0 192 0 c 0
 168 0 70 22 70 92 c 2
 70 336 l 1
 140 336 l 1
 140 98 l 1
 140 98 156 64 210 64 c 0
 264 64 276 96 276 96 c 1
 276 336 l 1
 346 336 l 1
 346 224 346 110 346 0 c 1
EndSplineSet
Validated: 1
EndChar

StartChar: l
Encoding: 108 108 20
Width: 415
VWidth: 693
Flags: W
HStem: 464 68<70 94.0625> 544 20G<124 224>
VStem: 178 70<60 496>
LayerCount: 2
Fore
SplineSet
346 94 m 1
 346 24 l 1
 212 -8 l 1
 192 -8 178 6 178 26 c 0
 178 48 178 70 178 90 c 2
 180 496 l 1
 70 464 l 1
 70 532 l 1
 214 564 l 1
 234 564 248 550 248 530 c 0
 248 508 248 488 248 468 c 2
 248 60 l 1
 346 94 l 1
EndSplineSet
Validated: 1
EndChar

StartChar: r
Encoding: 114 114 21
Width: 415
VWidth: 693
Flags: W
HStem: 0 21G<70 140> 0 21G<70 140> 268 68<179.074 276.949>
VStem: 70 70<0 196 282 336>
LayerCount: 2
Fore
SplineSet
70 336 m 1xb0
 140 336 l 1
 140 282 l 1
 140 282 172 336 228 336 c 0
 288 336 346 262 346 262 c 1
 300 226 l 1
 300 224 l 1
 300 224 266 268 228 268 c 0
 176 268 140 196 140 196 c 1
 140 196 140 128 140 0 c 1
 70 0 l 1
 70 112 70 226 70 336 c 1xb0
EndSplineSet
Validated: 1
EndChar

StartChar: m
Encoding: 109 109 22
Width: 415
VWidth: 693
Flags: HMW
LayerCount: 2
Fore
SplineSet
70 330 m 1
 116 330 l 1
 116 310 l 1
 116 310 124 332 154 332 c 0
 196 332 210 292 210 292 c 1
 210 292 234 330 274 330 c 0
 322 330 346 276 346 248 c 2
 346 0 l 1
 296 0 l 1
 296 244 l 1
 296 244 294 270 264 270 c 0
 234 270 232 244 232 244 c 1
 232 0 l 1
 182 0 l 1
 182 244 l 2
 182 246 180 270 152 270 c 0
 122 270 122 244 122 244 c 1
 122 0 l 1
 70 0 l 1
 70 330 l 1
EndSplineSet
Validated: 1
EndChar

StartChar: t
Encoding: 116 116 23
Width: 415
VWidth: 693
Flags: W
HStem: 0 64<240.719 346> 244 82<70 170 240 342> 536 20G<170 240>
VStem: 170 70<64.7364 244 326 556>
LayerCount: 2
Fore
SplineSet
268 64 m 0
 294 64 346 64 346 64 c 1
 346 0 l 1
 320 0 324 0 238 0 c 0
 178 0 170 46 170 102 c 0
 170 120 170 140 170 160 c 2
 170 244 l 1
 70 244 l 1
 70 326 l 1
 170 326 l 1
 170 556 l 1
 240 556 l 1
 240 326 l 1
 342 326 l 1
 342 244 l 1
 240 244 l 1
 240 244 240 214 240 160 c 0
 240 158 240 158 240 156 c 0
 240 134 240 116 240 104 c 0
 240 74 242 64 268 64 c 0
EndSplineSet
Validated: 1
EndChar

StartChar: f
Encoding: 102 102 24
Width: 415
VWidth: 693
Flags: W
HStem: 260 70<70 116 184 230> 484 72<193.844 267.741>
VStem: 116 68<-4 260 330 474.305> 276 70<390 476.075>
LayerCount: 2
Fore
SplineSet
346 390 m 1
 276 388 l 1
 276 392 276 394 276 398 c 0
 276 440 276 484 230 484 c 0
 186 484 184 438 184 396 c 0
 184 394 184 392 184 390 c 2
 184 330 l 1
 230 330 l 1
 230 260 l 1
 184 260 l 1
 184 -4 l 1
 116 -4 l 1
 116 260 l 1
 70 260 l 1
 70 330 l 1
 116 330 l 1
 116 390 l 2
 116 470 148 556 228 556 c 0
 314 556 346 474 346 390 c 1
EndSplineSet
Validated: 1
EndChar

StartChar: k
Encoding: 107 107 25
Width: 415
VWidth: 693
Flags: W
HStem: 0 21G<70 140 267.487 346> 0 21G<70 140 267.487 346> 536 20G<70 140>
VStem: 70 70<0 110 190 556>
LayerCount: 2
Fore
SplineSet
70 556 m 1xb0
 140 556 l 1
 140 190 l 1
 264 310 l 1
 346 310 l 1
 248 202 l 1
 346 0 l 1
 278 0 l 1
 196 156 l 1
 138 110 l 1
 140 0 l 1
 70 0 l 1
 70 556 l 1xb0
EndSplineSet
Validated: 1
EndChar

StartChar: z
Encoding: 122 122 26
Width: 415
VWidth: 693
Flags: W
HStem: 0 64<168 346> 266 68<70 262>
VStem: 70 276<0 64 266 334>
LayerCount: 2
Fore
SplineSet
70 334 m 1
 346 334 l 1
 346 266 l 1
 168 64 l 1
 346 64 l 1
 346 0 l 1
 70 0 l 1
 70 64 l 1
 262 266 l 1
 70 266 l 1
 70 334 l 1
EndSplineSet
Validated: 1
EndChar

StartChar: H
Encoding: 72 72 27
Width: 415
VWidth: 693
Flags: W
HStem: 0 21G<70 142 276 346> 0 21G<70 142 276 346> 264 54<142 276> 536 20G<70 142 276 346>
VStem: 70 72<0 264 318 556> 276 70<0 264 318 556>
LayerCount: 2
Fore
SplineSet
70 556 m 1xbc
 142 556 l 1
 142 318 l 1
 276 318 l 1
 276 556 l 1
 346 556 l 1
 346 0 l 1
 276 0 l 1
 276 264 l 1
 142 264 l 1
 142 0 l 1
 70 0 l 1
 70 556 l 1xbc
EndSplineSet
Validated: 1
EndChar

StartChar: O
Encoding: 79 79 28
Width: 415
VWidth: 693
Flags: W
HStem: 0 80<159.459 254.208> 482 74<168.048 251.733>
VStem: 70 70<114.648 434.573> 276 70<113.172 452.362>
LayerCount: 2
Fore
SplineSet
276 286 m 0
 276 434 264 482 208 482 c 0
 158 482 140 426 140 290 c 0
 140 288 140 288 140 286 c 0
 140 282 140 280 140 276 c 0
 140 112 150 80 208 80 c 0
 266 80 276 122 276 286 c 0
70 286 m 0
 70 442 128 556 208 556 c 0
 298 556 346 458 346 286 c 0
 346 104 296 0 208 0 c 0
 120 0 70 102 70 286 c 0
EndSplineSet
Validated: 1
EndChar

StartChar: A
Encoding: 65 65 29
Width: 415
VWidth: 693
Flags: W
HStem: 0 21G<70 143.636 265.455 346> 0 21G<70 143.636 265.455 346> 132 58<170 230> 536 20G<154.835 234.173>
VStem: 158 72<522.448 556>
LayerCount: 2
Fore
SplineSet
158 556 m 1xb8
 230 556 l 1
 346 0 l 1
 270 0 l 1
 240 132 l 1
 164 132 l 1
 140 0 l 1
 70 0 l 1
 158 556 l 1xb8
198 474 m 5
 170 190 l 5
 230 190 l 1
 198 474 l 5
EndSplineSet
Validated: 1
EndChar

StartChar: E
Encoding: 69 69 30
Width: 415
VWidth: 693
Flags: W
HStem: 0 70<142 346> 256 62<142 258> 490 66<142 346>
VStem: 70 72<70 256 318 490>
LayerCount: 2
Fore
SplineSet
346 556 m 1
 346 490 l 1
 142 490 l 1
 142 318 l 1
 258 318 l 1
 258 256 l 1
 142 256 l 1
 142 70 l 1
 346 70 l 1
 346 0 l 1
 70 0 l 1
 70 556 l 1
 346 556 l 1
EndSplineSet
Validated: 1
EndChar

StartChar: S
Encoding: 83 83 31
Width: 415
VWidth: 693
Flags: W
HStem: 0 80<182.973 261.562> 490 66<157.086 238.728>
VStem: 70 76<382.068 477.795> 272 74<89.0667 202.571>
LayerCount: 2
Fore
SplineSet
340 408 m 1
 264 408 l 1
 264 408 250 490 200 490 c 0
 176 490 146 472 146 434 c 0
 146 336 346 306 346 158 c 0
 346 100 316 0 216 0 c 0
 88 0 76 164 76 164 c 1
 158 164 l 1
 158 164 162 80 222 80 c 2
 224 80 l 2
 268 80 272 126 272 148 c 0
 272 156 272 160 272 160 c 2
 272 238 70 286 70 418 c 0
 70 492 134 556 206 556 c 0
 316 556 340 408 340 408 c 1
EndSplineSet
Validated: 1
EndChar

StartChar: I
Encoding: 73 73 32
Width: 415
VWidth: 693
Flags: W
HStem: 0 64<70 172 248 346> 492 64<70 172 248 346>
VStem: 172 76<64 492>
LayerCount: 2
Fore
SplineSet
70 556 m 1
 346 556 l 1
 346 492 l 1
 248 492 l 1
 248 64 l 1
 346 64 l 1
 346 0 l 1
 70 0 l 1
 70 64 l 1
 172 64 l 1
 172 492 l 1
 70 492 l 1
 70 556 l 1
EndSplineSet
Validated: 1
EndChar

StartChar: N
Encoding: 78 78 33
Width: 415
VWidth: 693
Flags: W
HStem: 0 21G<70 142 269.021 346> 0 21G<70 142 269.021 346> 536 20G<70 149.128 276 346>
VStem: 70 72<0 384> 276 70<180 556>
LayerCount: 2
Fore
SplineSet
70 556 m 1xb8
 142 556 l 1
 276 180 l 1
 276 556 l 1
 346 556 l 1
 346 0 l 1
 276 0 l 1
 142 384 l 1
 142 0 l 1
 70 0 l 1
 70 556 l 1xb8
EndSplineSet
Validated: 1
EndChar

StartChar: L
Encoding: 76 76 34
Width: 415
VWidth: 693
Flags: W
HStem: 0 70<142 346> 536 20G<70 142>
VStem: 70 72<70 556>
LayerCount: 2
Fore
SplineSet
142 556 m 1
 142 70 l 1
 346 70 l 1
 346 0 l 1
 70 0 l 1
 70 556 l 1
 142 556 l 1
EndSplineSet
Validated: 1
EndChar

StartChar: Z
Encoding: 90 90 35
Width: 415
VWidth: 693
Flags: W
HStem: 0 72<148 346> 484 72<70 268>
VStem: 70 276<0 72 484 556>
LayerCount: 2
Fore
SplineSet
70 0 m 1
 70 72 l 1
 268 484 l 1
 70 484 l 1
 70 556 l 1
 346 556 l 1
 346 484 l 1
 148 72 l 1
 346 72 l 1
 346 0 l 1
 70 0 l 1
EndSplineSet
Validated: 1
EndChar

StartChar: V
Encoding: 86 86 36
Width: 415
VWidth: 693
Flags: W
HStem: 0 21G<170.259 243.813> 0 21G<170.259 243.813> 536 20G<70 142.982 274.93 346>
VStem: 70 70<518.577 556> 278 68<519.283 556>
LayerCount: 2
Fore
SplineSet
174 0 m 1xb8
 70 556 l 1
 140 556 l 1
 208 100 l 1
 278 556 l 1
 346 556 l 1
 240 0 l 1
 174 0 l 1xb8
EndSplineSet
Validated: 1
EndChar

StartChar: P
Encoding: 80 80 37
Width: 415
VWidth: 693
Flags: W
HStem: 0 21G<70 142> 0 21G<70 142> 256 58<144 249.064> 484 70<144 254.235>
VStem: 70 72<0 256 314 484> 282 64<346.513 456.949>
LayerCount: 2
Fore
SplineSet
236 256 m 0xbc
 156 256 142 256 142 256 c 1
 142 0 l 1
 70 0 l 1
 70 554 l 1
 70 554 128 554 236 554 c 0
 292 554 346 480 346 404 c 0
 346 330 292 256 236 256 c 0xbc
144 484 m 1
 144 314 l 1
 160 314 166 314 202 314 c 0
 242 314 282 358 282 404 c 0
 282 448 244 484 202 484 c 0
 170 484 174 484 144 484 c 1
EndSplineSet
Validated: 1
EndChar

StartChar: T
Encoding: 84 84 38
Width: 415
VWidth: 693
Flags: W
HStem: 0 21G<172 248> 0 21G<172 248> 492 64<70 172 248 346>
VStem: 172 76<0 492>
LayerCount: 2
Fore
SplineSet
70 556 m 1xb0
 346 556 l 1
 346 492 l 1
 248 492 l 1
 248 328 248 164 248 0 c 1
 172 0 l 1
 172 492 l 1
 70 492 l 1
 70 556 l 1xb0
EndSplineSet
Validated: 1
EndChar

StartChar: M
Encoding: 77 77 39
Width: 415
VWidth: 693
Flags: W
HStem: 0 21G<70 142 276 346> 0 21G<70 142 276 346> 536 20G<70 146.869 269.131 346>
VStem: 70 72<0 390> 276 70<0 390>
LayerCount: 2
Fore
SplineSet
70 556 m 1xb8
 140 556 l 1
 208 358 l 1
 276 556 l 1
 346 556 l 1
 346 0 l 1
 276 0 l 1
 276 390 l 1
 210 224 l 1
 142 390 l 1
 142 0 l 1
 70 0 l 1
 70 556 l 1xb8
EndSplineSet
Validated: 1
EndChar

StartChar: F
Encoding: 70 70 40
Width: 415
VWidth: 693
Flags: W
HStem: 0 21G<70 142> 0 21G<70 142> 256 62<142 258> 490 66<142 346>
VStem: 70 72<0 256 318 490>
LayerCount: 2
Fore
SplineSet
346 556 m 1xb8
 346 490 l 1
 142 490 l 1
 142 318 l 1
 258 318 l 1
 258 256 l 1
 142 256 l 1
 142 0 l 1
 70 0 l 1
 70 556 l 1
 346 556 l 1xb8
EndSplineSet
Validated: 1
EndChar

StartChar: X
Encoding: 88 88 41
Width: 415
VWidth: 693
Flags: W
HStem: 0 21G<70 147.741 269.333 346> 0 21G<70 147.741 269.333 346> 536 20G<70 147.216 270.99 346>
VStem: 70 276
LayerCount: 2
Fore
SplineSet
176 294 m 1xb0
 70 556 l 1
 140 556 l 1
 210 362 l 1
 278 556 l 1
 346 556 l 1
 238 294 l 1
 346 0 l 1
 276 0 l 1
 204 216 l 1
 142 0 l 1
 70 0 l 1
 176 294 l 1xb0
EndSplineSet
Validated: 1
EndChar

StartChar: Y
Encoding: 89 89 42
Width: 415
VWidth: 693
Flags: W
HStem: 0 21G<176 240> 0 21G<176 240> 536 20G<70 145.965 271.86 346>
VStem: 176 64<0 278>
LayerCount: 2
Fore
SplineSet
176 278 m 1xb0
 70 556 l 1
 140 556 l 1
 208 328 l 1
 278 556 l 1
 346 556 l 1
 240 278 l 1
 240 0 l 1
 176 0 l 1
 176 278 l 1xb0
EndSplineSet
Validated: 1
EndChar

StartChar: Q
Encoding: 81 81 43
Width: 415
VWidth: 693
Flags: W
HStem: 0 80<159.233 227.616> 482 74<169.823 253.302>
VStem: 70 70<108.398 427.904> 276 70<139.26 453.122>
LayerCount: 2
Fore
SplineSet
70 264 m 0
 70 440 128 556 216 556 c 0
 298 556 346 460 346 284 c 0
 346 194 334 120 308 70 c 1
 346 0 l 1
 276 0 l 1
 264 18 l 1
 248 6 230 0 208 0 c 0
 120 0 70 100 70 264 c 0
276 276 m 0
 276 440 262 482 214 482 c 0
 160 482 140 428 140 288 c 2
 140 288 140 286 140 284 c 0
 140 282 140 280 140 280 c 2
 140 110 150 80 206 80 c 0
 214 80 222 80 228 82 c 1
 164 194 l 1
 236 194 l 1
 268 138 l 1
 274 168 276 212 276 276 c 0
EndSplineSet
Validated: 1
EndChar

StartChar: U
Encoding: 85 85 44
Width: 415
VWidth: 693
Flags: W
HStem: 0 80<163.721 255.739> 536 20G<70 138 280 346>
VStem: 70 66<108.899 556> 284 62<113.039 556>
LayerCount: 2
Fore
SplineSet
70 556 m 1
 138 556 l 1
 136 472 136 360 136 284 c 0
 136 124 152 80 210 80 c 0
 266 80 284 128 284 284 c 0
 284 388 280 450 280 556 c 1
 346 556 l 1
 346 430 346 234 346 234 c 2
 346 60 310 0 208 0 c 0
 106 0 70 60 70 234 c 2
 70 556 l 1
EndSplineSet
Validated: 1
EndChar

StartChar: R
Encoding: 82 82 45
Width: 415
VWidth: 693
Flags: W
HStem: 0 21G<70 142 268.969 346> 0 21G<70 142 268.969 346> 256 58<144 186> 484 70<144 254.169>
VStem: 70 72<0 256 314 484> 282 62<346.037 456.949>
LayerCount: 2
Fore
SplineSet
186 256 m 1xbc
 142 256 l 1
 142 0 l 1
 70 0 l 1
 70 554 l 1
 70 554 128 554 236 554 c 0
 292 554 344 480 344 404 c 0
 344 340 304 276 256 260 c 1
 346 0 l 1
 276 0 l 1
 186 256 l 1xbc
144 484 m 1
 144 314 l 1
 160 314 166 314 202 314 c 0
 242 314 282 358 282 404 c 0
 282 448 244 484 202 484 c 0
 170 484 174 484 144 484 c 1
EndSplineSet
Validated: 1
EndChar

StartChar: D
Encoding: 68 68 46
Width: 415
VWidth: 693
Flags: W
HStem: 0 60<144 215.317> 482 72<144 218.022>
VStem: 70 74<60 482> 282 64<160.956 393.139>
LayerCount: 2
Fore
SplineSet
210 0 m 2
 70 0 l 1
 70 554 l 1
 70 554 102 554 210 554 c 0
 266 554 346 430 346 276 c 0
 346 136 266 0 210 0 c 2
144 482 m 1
 144 60 l 1
 160 60 178 60 178 60 c 2
 218 60 282 158 282 276 c 0
 282 400 220 482 178 482 c 0
 146 482 174 482 144 482 c 1
EndSplineSet
Validated: 1
EndChar

StartChar: K
Encoding: 75 75 47
Width: 415
VWidth: 693
Flags: W
HStem: 0 21G<70 142 256.524 344> 0 21G<70 142 256.524 344> 536 20G<70 142 256.884 346>
VStem: 70 72<0 168 384 556>
LayerCount: 2
Fore
SplineSet
142 168 m 1xb0
 142 0 l 1
 70 0 l 1
 70 556 l 1
 142 556 l 1
 142 384 l 1
 272 556 l 1
 346 556 l 1
 142 278 l 1
 344 0 l 1
 272 0 l 1
 142 168 l 1xb0
EndSplineSet
Validated: 1
EndChar

StartChar: B
Encoding: 66 66 48
Width: 415
VWidth: 693
Flags: W
HStem: 0 58<142 247.76> 230 84<144 251.15> 484 70<144 254.888>
VStem: 70 72<58 230 314 484> 280 64<89.6874 203.584 343.643 458.89>
LayerCount: 2
Fore
SplineSet
142 230 m 1
 142 58 l 1
 158 58 166 58 202 58 c 0
 242 58 280 102 280 148 c 0
 280 192 244 230 202 230 c 0
 170 230 172 230 142 230 c 1
144 484 m 1
 144 314 l 1
 160 314 166 314 202 314 c 0
 242 314 282 358 282 404 c 0
 282 448 244 484 202 484 c 0
 170 484 174 484 144 484 c 1
288 276 m 1
 322 248 344 198 344 148 c 0
 344 74 310 0 234 0 c 2
 70 0 l 1
 70 554 l 1
 70 554 128 554 236 554 c 0
 306 554 346 478 346 404 c 0
 346 354 322 302 288 276 c 1
EndSplineSet
Validated: 1
EndChar

StartChar: C
Encoding: 67 67 49
Width: 415
VWidth: 693
Flags: W
HStem: 0 82<168.416 269.519> 482 74<169.696 265.117>
VStem: 70 70<113.633 434.911> 276 70<88.2203 158 408 471.443>
LayerCount: 2
Fore
SplineSet
344 408 m 1
 274 390 l 1
 274 468 266 482 210 482 c 0
 160 482 140 426 140 276 c 0
 140 134 160 82 210 82 c 0
 272 82 276 88 276 176 c 1
 346 158 l 1
 346 42 310 0 208 0 c 0
 120 0 70 102 70 286 c 0
 70 442 130 556 210 556 c 0
 306 556 344 512 344 408 c 1
EndSplineSet
Validated: 1
EndChar

StartChar: G
Encoding: 71 71 50
Width: 415
VWidth: 693
Flags: W
HStem: 0 82<168.166 254.471> 214 54<210 280> 482 74<168.244 264.491>
VStem: 70 70<113.915 446.352> 280 66<113.544 214 390 467.338>
LayerCount: 2
Fore
SplineSet
344 390 m 1
 274 390 l 1
 274 468 264 482 208 482 c 0
 158 482 140 434 140 284 c 0
 140 142 158 82 208 82 c 0
 266 82 278 144 280 214 c 1
 210 214 l 1
 210 268 l 1
 346 268 l 1
 346 146 324 0 206 0 c 0
 118 0 70 102 70 286 c 0
 70 442 116 556 208 556 c 2
 210 556 l 2
 306 556 344 494 344 390 c 1
EndSplineSet
Validated: 1
EndChar

StartChar: J
Encoding: 74 74 51
Width: 415
VWidth: 693
Flags: W
HStem: 0 80<162.265 255.739> 536 20G<280 346>
VStem: 70 68<107.634 176> 284 62<113.039 556>
LayerCount: 2
Fore
SplineSet
70 176 m 1
 138 176 l 1
 146 104 170 80 210 80 c 0
 266 80 284 128 284 284 c 0
 284 388 280 450 280 556 c 1
 346 556 l 1
 346 430 346 234 346 234 c 2
 346 60 310 0 208 0 c 0
 118 0 78 48 70 176 c 1
EndSplineSet
Validated: 1
EndChar

StartChar: W
Encoding: 87 87 52
Width: 415
VWidth: 693
Flags: W
HStem: 0 21G<93.1367 165.897 244.359 322.863> 0 21G<93.1367 165.897 244.359 322.863> 536 20G<70 146.316 275.053 346>
VStem: 70 76<393.833 556> 276 70<408.222 556>
LayerCount: 2
Fore
SplineSet
94 0 m 1xb8
 70 556 l 1
 146 556 l 1
 152 176 l 1
 206 280 l 1
 258 176 l 1
 276 556 l 1
 346 556 l 1
 322 0 l 1
 250 0 l 1
 206 156 l 1
 160 0 l 1
 94 0 l 1xb8
EndSplineSet
Validated: 1
EndChar

StartChar: parenleft
Encoding: 40 40 53
Width: 415
VWidth: 693
Flags: W
HStem: -30 62<232.945 312> 510 72<226.624 312>
VStem: 104 66<116.751 434.11>
LayerCount: 2
Fore
SplineSet
262 -30 m 2
 206 -30 104 8 104 276 c 0
 104 542 206 582 262 582 c 2
 312 582 l 1
 312 510 l 1
 310 510 308 510 294 510 c 0
 252 510 170 506 170 276 c 0
 170 48 254 32 294 32 c 2
 312 32 l 1
 312 -30 l 1
 262 -30 l 2
EndSplineSet
Validated: 1
EndChar

StartChar: parenright
Encoding: 41 41 54
Width: 415
VWidth: 693
Flags: W
HStem: -30 62<104 183.055> 510 72<104 189.376>
VStem: 246 66<116.751 434.11>
LayerCount: 2
Fore
SplineSet
154 -30 m 2
 104 -30 l 1
 104 32 l 1
 122 32 l 2
 162 32 246 48 246 276 c 0
 246 506 164 510 122 510 c 0
 108 510 106 510 104 510 c 1
 104 582 l 1
 154 582 l 2
 210 582 312 542 312 276 c 0
 312 8 210 -30 154 -30 c 2
EndSplineSet
Validated: 1
EndChar

StartChar: bracketleft
Encoding: 91 91 55
Width: 415
VWidth: 693
Flags: W
HStem: -66 68<177.909 312> 558 72<180.596 312>
VStem: 104 60<52.8984 501.554>
LayerCount: 2
Fore
SplineSet
262 -66 m 2
 230 -66 214 -68 150 -68 c 0
 112 -68 104 16 104 276 c 0
 104 286 104 294 104 304 c 0
 104 590 106 626 150 626 c 0
 154 626 258 630 262 630 c 2
 312 630 l 1
 312 558 l 1
 310 558 308 558 294 558 c 0
 280 558 224 554 204 554 c 0
 168 554 164 486 164 276 c 0
 164 52 168 2 204 2 c 0
 260 2 270 2 294 2 c 2
 312 2 l 1
 312 -66 l 1
 262 -66 l 2
EndSplineSet
Validated: 1
EndChar

StartChar: bracketright
Encoding: 93 93 56
Width: 415
VWidth: 693
Flags: W
HStem: -66 68<104 239.586> 558 72<104 237.019>
VStem: 252 60<52.8984 501.554>
LayerCount: 2
Fore
SplineSet
154 -66 m 2
 104 -66 l 1
 104 2 l 1
 122 2 l 2
 146 2 158 2 214 2 c 0
 250 2 252 52 252 276 c 0
 252 486 250 554 214 554 c 0
 194 554 136 558 122 558 c 0
 108 558 106 558 104 558 c 1
 104 630 l 1
 154 630 l 2
 158 630 264 626 268 626 c 0
 312 626 312 590 312 304 c 0
 312 294 312 286 312 276 c 0
 312 16 306 -68 268 -68 c 0
 204 -68 186 -66 154 -66 c 2
EndSplineSet
Validated: 1
EndChar

StartChar: backslash
Encoding: 92 92 57
Width: 415
VWidth: 693
Flags: W
HStem: 0 21G<257.022 346> 0 21G<257.022 346> 536 20G<70 157.05>
VStem: 70 276
LayerCount: 2
Fore
SplineSet
70 556 m 1xb0
 150 556 l 1
 346 0 l 1
 264 0 l 1
 70 556 l 1xb0
EndSplineSet
Validated: 1
EndChar

StartChar: bar
Encoding: 124 124 58
Width: 415
VWidth: 693
Flags: W
VStem: 178 62<-72 626>
LayerCount: 2
Fore
SplineSet
178 626 m 1
 240 626 l 1
 240 394 240 160 240 -72 c 1
 178 -72 l 1
 178 626 l 1
EndSplineSet
Validated: 1
EndChar

StartChar: slash
Encoding: 47 47 59
Width: 415
VWidth: 693
Flags: W
HStem: 0 21G<70 160.906> 0 21G<70 160.906> 536 20G<258.95 346>
VStem: 70 276
LayerCount: 2
Fore
SplineSet
346 556 m 1xb0
 154 0 l 1
 70 0 l 1
 266 556 l 1
 346 556 l 1xb0
EndSplineSet
Validated: 1
EndChar

StartChar: exclam
Encoding: 33 33 60
Width: 415
VWidth: 693
Flags: W
HStem: 0 132<163.25 256.886> 536 20G<170 250>
VStem: 142 134<19.25 110.589> 170 80<188 556>
LayerCount: 2
Fore
SplineSet
170 556 m 1xd0
 250 556 l 1
 250 188 l 1
 170 188 l 1
 170 556 l 1xd0
142 64 m 0xe0
 142 98 176 132 210 132 c 0
 244 132 276 100 276 66 c 0
 276 32 244 0 210 0 c 0
 176 0 142 30 142 64 c 0xe0
EndSplineSet
Validated: 1
EndChar

StartChar: one
Encoding: 49 49 61
AltUni2: 0000b9.ffffffff.0
Width: 415
VWidth: 693
Flags: W
HStem: 0 64<70 172 248 346> 536 20G<136.828 248>
VStem: 172 76<64 470>
LayerCount: 2
Fore
SplineSet
70 498 m 1
 172 556 l 1
 248 556 l 1
 248 64 l 1
 346 64 l 1
 346 0 l 1
 70 0 l 1
 70 64 l 1
 172 64 l 1
 172 470 l 1
 70 414 l 1
 70 498 l 1
EndSplineSet
Validated: 1
EndChar

StartChar: two
Encoding: 50 50 62
AltUni2: 0000b2.ffffffff.0
Width: 415
VWidth: 693
Flags: W
HStem: 0 72<168 340> 484 72<158.719 255.647>
VStem: 70 270<0 72 384 490.539> 268 78<312.331 474.086>
LayerCount: 2
Fore
SplineSet
70 0 m 1xe0
 70 72 l 1xe0
 180 188 268 308 268 398 c 0xd0
 268 480 240 484 210 484 c 0
 168 484 152 452 70 384 c 1
 70 472 l 1xe0
 132 524 154 556 208 556 c 0
 282 556 346 496 346 402 c 0xd0
 346 314 276 208 168 72 c 1
 340 72 l 1
 340 0 l 1
 70 0 l 1xe0
EndSplineSet
Validated: 1
EndChar

StartChar: three
Encoding: 51 51 63
AltUni2: 0000b3.ffffffff.0
Width: 415
VWidth: 693
Flags: W
HStem: 0 60<170.128 258.148> 484 72<154.067 260.302>
VStem: 280 64<82.3584 212.666 339.951 463.435>
LayerCount: 2
Fore
SplineSet
280 278 m 1
 318 246 344 194 344 150 c 0
 344 70 286 0 218 0 c 0
 166 0 104 50 70 120 c 1
 140 120 l 1
 160 84 192 60 216 60 c 0
 250 60 280 98 280 142 c 0
 280 198 248 224 214 282 c 1
 248 330 282 356 282 404 c 0
 282 454 250 484 202 484 c 0
 180 484 154 468 138 444 c 1
 138 444 92 444 70 444 c 1
 70 444 124 556 202 556 c 0
 280 556 346 482 346 392 c 0
 346 356 318 308 280 278 c 1
EndSplineSet
Validated: 1
EndChar

StartChar: four
Encoding: 52 52 64
Width: 415
VWidth: 693
Flags: W
HStem: 0 21G<206 282> 0 21G<206 282> 170 70<144 206 280 346> 536 20G<191.772 280>
VStem: 206 74<0 170 240 410>
LayerCount: 2
Fore
SplineSet
208 240 m 1x38
 208 410 l 1
 144 240 l 1
 208 240 l 1x38
70 176 m 1
 70 240 l 1
 200 556 l 1
 280 556 l 1
 280 240 l 1
 346 240 l 1
 346 170 l 1
 280 170 l 1
 280 156 280 144 280 134 c 0
 280 86 282 58 282 0 c 1
 206 0 l 1xb8
 206 170 l 1
 70 170 l 1
 70 176 l 1
EndSplineSet
Validated: 1
EndChar

StartChar: five
Encoding: 53 53 65
Width: 415
VWidth: 693
Flags: W
HStem: 0 86<139.815 238.162> 270 88<164 236.414> 484 72<164 310>
VStem: 92 72<358 484> 264 82<113.7 243.589>
LayerCount: 2
Fore
SplineSet
346 182 m 0
 346 92 278 0 192 0 c 0
 126 0 70 72 70 72 c 1
 110 136 l 1
 134 116 150 86 194 86 c 0
 222 86 264 114 264 184 c 0
 264 236 222 270 198 270 c 2
 92 270 l 1
 92 556 l 1
 310 556 l 1
 310 538 310 526 310 516 c 0
 310 498 310 494 310 484 c 1
 298 484 280 484 262 484 c 0
 226 484 184 484 164 484 c 1
 164 358 l 1
 204 358 l 2
 256 358 346 272 346 182 c 0
EndSplineSet
Validated: 1
EndChar

StartChar: seven
Encoding: 55 55 66
Width: 415
VWidth: 693
Flags: W
HStem: 0 21G<70 149.338> 0 21G<70 149.338> 484 72<70 254>
VStem: 70 276<464.922 484>
LayerCount: 2
Fore
SplineSet
70 0 m 1xb0
 254 484 l 1
 70 484 l 1
 70 556 l 1
 346 556 l 1
 142 0 l 1
 70 0 l 1xb0
EndSplineSet
Validated: 1
EndChar

StartChar: eight
Encoding: 56 56 67
Width: 415
VWidth: 693
Flags: W
HStem: 0 90<162.367 254.613> 252 122<167.123 240.61> 476 78<169.142 240.472>
VStem: 70 70<112.295 229.738> 94 66<381.368 468.432> 248 66<380.374 468.665> 276 70<109.94 230.879>
LayerCount: 2
Fore
SplineSet
94 424 m 0xe8
 94 502 140 554 204 554 c 0
 268 554 314 502 314 424 c 0xec
 314 380 298 340 274 316 c 1
 318 290 346 238 346 170 c 0
 346 72 288 0 208 0 c 0
 130 0 70 72 70 170 c 0xf2
 70 234 98 288 138 314 c 1
 112 338 94 376 94 424 c 0xe8
248 424 m 0
 248 456 228 476 204 476 c 0
 180 476 160 454 160 424 c 0
 160 394 180 374 204 374 c 0
 228 374 248 392 248 424 c 0
276 170 m 0xf2
 276 218 246 252 208 252 c 0
 170 252 140 218 140 170 c 0
 140 122 172 90 208 90 c 0
 244 90 276 120 276 170 c 0xf2
EndSplineSet
Validated: 1
EndChar

StartChar: zero
Encoding: 48 48 68
Width: 415
VWidth: 693
Flags: W
HStem: 0 80<160.93 254.208> 482 74<168.048 253.903>
VStem: 70 70<220.883 434.573> 276 70<115.527 346.984>
LayerCount: 2
Fore
SplineSet
276 352 m 1
 154 112 l 1
 164 88 182 80 208 80 c 0
 266 80 276 122 276 286 c 0
 276 310 276 332 276 352 c 1
262 444 m 1
 252 472 234 482 208 482 c 0
 158 482 140 426 140 290 c 0
 140 288 140 288 140 286 c 0
 140 282 140 280 140 276 c 0
 140 252 142 234 142 216 c 1
 262 444 l 1
70 286 m 0
 70 442 128 556 208 556 c 0
 298 556 346 458 346 286 c 0
 346 104 296 0 208 0 c 0
 120 0 70 102 70 286 c 0
EndSplineSet
Validated: 1
EndChar

StartChar: nine
Encoding: 57 57 69
Width: 415
VWidth: 693
Flags: W
HStem: 0 21G<166 222> 0 21G<166 222> 236 68<162.316 246.982> 464 92<161.387 253.633>
VStem: 70 70<324.692 444.182> 276 70<326.954 440.329>
LayerCount: 2
Fore
SplineSet
140 384 m 0x3c
 140 336 170 304 208 304 c 0
 246 304 276 336 276 384 c 0
 276 432 244 464 208 464 c 0
 172 464 140 434 140 384 c 0x3c
166 0 m 1xbc
 166 0 134 22 106 44 c 1
 204 154 252 260 252 260 c 1
 230 250 216 236 192 236 c 0
 190 236 188 236 186 236 c 0
 130 236 70 290 70 384 c 0
 70 482 128 556 208 556 c 0
 286 556 346 482 346 384 c 0
 346 378 346 372 346 366 c 0
 346 190 278 140 166 0 c 1xbc
EndSplineSet
Validated: 1
EndChar

StartChar: six
Encoding: 54 54 70
Width: 415
VWidth: 693
Flags: W
HStem: 0 90<162.367 254.613> 252 66<165.025 253.684> 536 20G<194 250>
VStem: 70 70<113.885 229.046> 276 70<109.94 229.832>
LayerCount: 2
Fore
SplineSet
250 556 m 1
 250 556 282 532 310 510 c 1
 212 400 164 296 164 296 c 1
 186 306 200 316 224 318 c 0
 226 318 228 318 230 318 c 0
 286 318 346 264 346 170 c 0
 346 72 288 0 208 0 c 0
 130 0 70 72 70 170 c 0
 70 176 70 184 70 190 c 0
 70 366 138 416 250 556 c 1
276 170 m 0
 276 218 246 252 208 252 c 0
 170 252 140 218 140 170 c 0
 140 122 172 90 208 90 c 0
 244 90 276 120 276 170 c 0
EndSplineSet
Validated: 1
EndChar

StartChar: numbersign
Encoding: 35 35 71
Width: 415
VWidth: 693
Flags: W
HStem: 0 21G<126 180 240 290> 0 21G<126 180 240 290> 194 56<70 126 190 240 296 346> 352 50<70 136 204 248 306 346> 536 20G<144 204 258 306>
VStem: 126 54<0 194> 136 54<250 352> 144 60<402 556> 240 50<0 194> 248 48<246 352> 258 48<402 556>
LayerCount: 2
Fore
SplineSet
248 246 m 1x3a40
 248 352 l 1
 190 352 l 1
 190 248 l 1
 248 246 l 1x3a40
290 194 m 1xb880
 290 0 l 1
 240 0 l 1
 240 194 l 1
 180 194 l 1
 180 0 l 1
 126 0 l 1
 126 194 l 1xbc80
 70 194 l 1
 70 250 l 1
 136 250 l 1
 136 354 l 1xba
 70 354 l 1
 70 402 l 1
 144 402 l 1
 144 556 l 1
 204 556 l 1
 204 402 l 1
 258 402 l 1
 258 556 l 1
 306 556 l 1
 306 402 l 1xb920
 346 402 l 1
 346 352 l 1
 296 352 l 1
 296 244 l 1xb840
 346 244 l 1
 346 194 l 1
 290 194 l 1xb880
EndSplineSet
Validated: 1
EndChar

StartChar: dollar
Encoding: 36 36 72
Width: 415
VWidth: 693
Flags: W
HStem: 0 21G<180 236> 0 21G<180 236> 44 68<236 264.844> 536 20G<180 236>
VStem: 70 76<365.864 448.212> 180 56<0 47.1887 128 228 354 442 506.666 556> 272 74<119.238 215.789>
LayerCount: 2
Fore
SplineSet
236 112 m 1x3e
 268 118 272 150 272 166 c 0
 272 172 272 178 272 178 c 2
 272 196 258 212 236 228 c 1
 236 112 l 1x3e
180 454 m 1
 162 448 146 434 146 410 c 0
 146 388 160 370 180 354 c 1
 180 454 l 1
340 388 m 1
 264 388 l 1
 264 388 258 422 236 442 c 1
 236 316 l 1
 290 282 346 242 346 176 c 0
 346 130 320 54 236 44 c 1
 236 0 l 1
 180 0 l 1xbe
 180 46 l 1
 86 70 76 182 76 182 c 1
 158 182 l 1
 158 182 160 148 180 128 c 1
 180 264 l 1
 126 298 70 336 70 396 c 0
 70 452 120 502 180 512 c 1
 180 556 l 1
 236 556 l 1
 236 510 l 1
 320 490 340 388 340 388 c 1
EndSplineSet
Validated: 1
EndChar

StartChar: percent
Encoding: 37 37 73
Width: 415
VWidth: 693
Flags: W
HStem: 0 54<229.256 297.625> 150 50<228.499 297.625> 354 54<121.256 190.277> 504 50<120.578 189.625>
VStem: 72 42<415.098 497.98> 180 42<61.0981 123.543> 196 42<426.582 498.453> 304 42<59.1986 144.453>
LayerCount: 2
Fore
SplineSet
72 456 m 0xfd
 72 514 108 554 156 554 c 0
 204 554 238 514 238 456 c 0xfb
 238 446 236 436 234 426 c 1
 284 556 l 1
 346 556 l 1
 198 162 l 1
 214 186 236 200 264 200 c 0
 312 200 346 160 346 102 c 0
 346 44 312 0 264 0 c 0
 218 0 180 44 180 102 c 0
 180 110 180 116 182 124 c 1
 136 0 l 1
 70 0 l 1
 222 396 l 1
 206 372 184 354 156 354 c 0
 110 354 72 398 72 456 c 0xfd
196 456 m 0
 196 486 178 504 156 504 c 0
 132 504 114 484 114 456 c 0
 114 428 134 408 156 408 c 0
 178 408 196 426 196 456 c 0
304 102 m 0
 304 132 286 150 264 150 c 0
 240 150 222 130 222 102 c 0xfd
 222 74 242 54 264 54 c 0
 286 54 304 72 304 102 c 0
EndSplineSet
Validated: 1
EndChar

StartChar: question
Encoding: 63 63 74
Width: 415
VWidth: 693
Flags: W
HStem: 0 132<163.25 256.886> 488 68<161.109 266.698>
VStem: 142 134<19.25 110.589> 170 74<180.031 312.24> 276 70<381.766 478.299>
LayerCount: 2
Fore
SplineSet
142 438 m 1xe0
 70 438 l 1
 70 438 122 556 210 556 c 0
 286 556 346 512 346 422 c 0
 346 364 244 324 244 264 c 0
 244 222 246 180 246 180 c 1
 168 180 l 1
 168 180 170 222 170 264 c 0
 170 322 276 378 276 422 c 0xd8
 276 472 258 488 210 488 c 0
 162 488 142 438 142 438 c 1xe0
142 64 m 0xe0
 142 98 176 132 210 132 c 0
 244 132 276 100 276 66 c 0
 276 32 244 0 210 0 c 0
 176 0 142 30 142 64 c 0xe0
EndSplineSet
Validated: 1
EndChar

StartChar: braceleft
Encoding: 123 123 75
Width: 415
VWidth: 693
Flags: W
HStem: -30 62<252.463 312> 510 72<250.181 312>
VStem: 104 76<251.602 305.584> 170 66<43.7254 232.816 325.492 502.248>
LayerCount: 2
Fore
SplineSet
262 -30 m 2xd0
 210 -30 176 -18 170 210 c 0xd0
 170 224 104 260 104 276 c 0xe0
 104 300 170 332 170 352 c 0
 178 560 210 582 262 582 c 2
 312 582 l 1
 312 510 l 1
 310 510 308 510 294 510 c 0
 288 510 284 510 280 510 c 0
 252 510 240 500 236 352 c 0xd0
 236 334 180 300 180 276 c 0xe0
 180 258 236 226 236 210 c 0
 240 36 254 32 290 32 c 0
 292 32 292 32 294 32 c 2
 312 32 l 1
 312 -30 l 1
 262 -30 l 2xd0
EndSplineSet
Validated: 1
EndChar

StartChar: braceright
Encoding: 125 125 76
Width: 415
VWidth: 693
Flags: W
HStem: -30 62<104 163.18> 510 72<104 165.492>
VStem: 182 64<48.1232 232.816 325.492 497.513> 236 76<251.602 305.584>
LayerCount: 2
Fore
SplineSet
156 -30 m 2xe0
 104 -30 l 1
 104 32 l 1
 122 32 l 2
 124 32 124 32 126 32 c 0
 162 32 178 36 182 210 c 0xe0
 182 226 236 258 236 276 c 0xd0
 236 300 182 334 182 352 c 0
 178 500 164 510 136 510 c 0
 132 510 128 510 122 510 c 0
 108 510 106 510 104 510 c 1
 104 582 l 1
 156 582 l 2
 208 582 238 560 246 352 c 0xe0
 246 332 312 300 312 276 c 0xd0
 312 260 246 224 246 210 c 0
 240 -18 208 -30 156 -30 c 2xe0
EndSplineSet
Validated: 1
EndChar

StartChar: less
Encoding: 60 60 77
Width: 415
VWidth: 693
Flags: W
VStem: 70 276
LayerCount: 2
Fore
SplineSet
346 334 m 1
 346 256 l 1
 174 168 l 1
 346 72 l 1
 346 -4 l 1
 70 168 l 1
 346 334 l 1
EndSplineSet
Validated: 1
EndChar

StartChar: greater
Encoding: 62 62 78
Width: 415
VWidth: 693
Flags: W
HStem: 314 20G<70 103.253>
VStem: 70 276
LayerCount: 2
Fore
SplineSet
70 334 m 1
 346 168 l 1
 70 -4 l 1
 70 72 l 1
 244 168 l 1
 70 256 l 1
 70 334 l 1
EndSplineSet
Validated: 1
EndChar

StartChar: period
Encoding: 46 46 79
Width: 415
VWidth: 693
Flags: W
HStem: 0 132<163.25 256.886>
VStem: 142 134<19.25 110.589>
LayerCount: 2
Fore
SplineSet
142 64 m 0
 142 98 176 132 210 132 c 0
 244 132 276 100 276 66 c 0
 276 32 244 0 210 0 c 0
 176 0 142 30 142 64 c 0
EndSplineSet
Validated: 1
EndChar

StartChar: comma
Encoding: 44 44 80
Width: 415
VWidth: 693
Flags: W
HStem: -82 214<171.25 202>
VStem: 150 134<29.0839 110.589>
LayerCount: 2
Fore
SplineSet
150 64 m 0
 150 98 184 132 218 132 c 0
 252 132 284 100 284 66 c 0
 284 40 262 12 238 2 c 1
 202 -82 l 1
 134 -82 l 1
 164 28 l 1
 156 38 150 50 150 64 c 0
EndSplineSet
Validated: 1
EndChar

StartChar: quotesingle
Encoding: 39 39 81
Width: 415
VWidth: 693
Flags: W
HStem: 348 208<176 244>
VStem: 176 68<348 452>
LayerCount: 2
Fore
SplineSet
162 556 m 1
 256 556 l 1
 244 348 l 5
 176 348 l 1
 162 556 l 1
EndSplineSet
Validated: 1
EndChar

StartChar: quotedbl
Encoding: 34 34 82
Width: 415
VWidth: 693
Flags: W
HStem: 348 208<78 158 272 352>
VStem: 64 94<452 556> 78 80<348 452> 258 94<452 556> 272 80<348 452>
LayerCount: 2
Fore
SplineSet
64 556 m 1xc0
 158 556 l 1xc0
 158 348 l 1
 78 348 l 1xa0
 64 556 l 1xc0
258 556 m 1x90
 352 556 l 1x90
 352 348 l 1
 272 348 l 1x88
 258 556 l 1x90
EndSplineSet
Validated: 1
EndChar

StartChar: colon
Encoding: 58 58 83
Width: 415
VWidth: 693
Flags: W
HStem: 12 132<162.067 255.75> 184 134<163.25 255.75>
VStem: 142 134<32.25 123.636 204.25 296.589>
LayerCount: 2
Fore
SplineSet
142 78 m 0
 142 112 176 144 210 144 c 0
 244 144 276 114 276 80 c 0
 276 46 244 12 210 12 c 0
 176 12 142 44 142 78 c 0
142 250 m 0
 142 284 176 318 210 318 c 0
 244 318 276 286 276 252 c 0
 276 218 244 184 210 184 c 0
 176 184 142 216 142 250 c 0
EndSplineSet
Validated: 1
EndChar

StartChar: semicolon
Encoding: 59 59 84
Width: 415
VWidth: 693
Flags: W
HStem: 184 134<171.25 264.75>
VStem: 150 134<40.4702 122.589 205.411 296.589>
LayerCount: 2
Fore
SplineSet
150 250 m 0
 150 284 184 318 218 318 c 0
 252 318 284 286 284 252 c 0
 284 218 254 184 220 184 c 0
 186 184 150 216 150 250 c 0
150 76 m 0
 150 110 184 144 218 144 c 0
 252 144 284 112 284 78 c 0
 284 52 262 26 238 16 c 1
 202 -70 l 1
 134 -68 l 1
 164 40 l 1
 156 50 150 62 150 76 c 0
EndSplineSet
Validated: 1
EndChar

StartChar: plus
Encoding: 43 43 85
Width: 415
VWidth: 693
Flags: W
HStem: 198 74<70 172 246 346>
VStem: 172 74<60 198 272 394>
LayerCount: 2
Fore
SplineSet
172 394 m 1
 246 394 l 1
 246 272 l 1
 346 272 l 1
 346 198 l 1
 246 198 l 1
 246 60 l 1
 172 60 l 1
 172 198 l 1
 70 198 l 1
 70 272 l 1
 172 272 l 1
 172 394 l 1
EndSplineSet
Validated: 1
EndChar

StartChar: equal
Encoding: 61 61 86
Width: 415
VWidth: 693
Flags: W
HStem: 120 80<70 346> 276 78<70 346>
VStem: 70 276<120 200 276 354>
LayerCount: 2
Fore
SplineSet
70 354 m 1
 346 354 l 1
 346 276 l 1
 70 276 l 1
 70 354 l 1
70 200 m 1
 346 200 l 1
 346 120 l 1
 70 120 l 1
 70 200 l 1
EndSplineSet
Validated: 1
EndChar

StartChar: hyphen
Encoding: 45 45 87
Width: 415
VWidth: 693
Flags: W
HStem: 198 74<70 346>
VStem: 70 276<198 272>
LayerCount: 2
Fore
SplineSet
346 272 m 1
 346 198 l 1
 70 198 l 1
 70 272 l 1
 346 272 l 1
EndSplineSet
Validated: 1
EndChar

StartChar: underscore
Encoding: 95 95 88
Width: 415
VWidth: 693
Flags: W
HStem: -74 74<36 380>
LayerCount: 2
Fore
SplineSet
380 0 m 1
 380 -74 l 1
 36 -74 l 1
 36 0 l 1
 380 0 l 1
EndSplineSet
Validated: 1
EndChar

StartChar: asterisk
Encoding: 42 42 89
Width: 415
VWidth: 693
Flags: W
VStem: 188 38<60 200 276 394>
LayerCount: 2
Fore
SplineSet
188 394 m 1
 226 394 l 1
 226 272 l 1
 320 350 l 1
 346 312 l 1
 250 238 l 1
 342 182 l 1
 312 142 l 1
 226 202 l 1
 226 60 l 1
 188 60 l 1
 188 200 l 1
 102 136 l 1
 72 174 l 1
 164 238 l 1
 70 304 l 1
 96 342 l 1
 188 276 l 1
 188 394 l 1
EndSplineSet
Validated: 1
EndChar

StartChar: asciicircum
Encoding: 94 94 90
Width: 415
VWidth: 693
Flags: W
HStem: 326 230
VStem: 70 276
LayerCount: 2
Fore
SplineSet
70 326 m 1
 206 556 l 1
 346 326 l 1
 272 326 l 1
 206 444 l 1
 148 326 l 1
 70 326 l 1
EndSplineSet
Validated: 1
EndChar

StartChar: ampersand
Encoding: 38 38 91
Width: 415
VWidth: 693
Flags: W
HStem: 0 70<142.956 194.458> 486 70<149.531 213.36>
VStem: 70 62<74.6636 236.89 383.828 469.28> 224 68<378.713 479.303> 276 64<0 79.9717>
LayerCount: 2
Fore
SplineSet
230 168 m 1xe0
 230 168 198 234 180 268 c 1
 152 238 132 216 132 160 c 0
 132 120 140 70 166 70 c 0
 192 70 214 126 230 168 c 1xe0
298 146 m 1
 306 116 340 18 340 0 c 1
 276 0 l 1xe8
 276 10 262 60 258 84 c 1
 238 32 226 0 178 0 c 0
 104 0 70 72 70 162 c 0
 70 236 94 282 130 318 c 1
 98 342 70 378 70 430 c 0
 70 504 120 556 184 556 c 0
 248 556 292 502 292 440 c 0
 292 380 248 334 224 310 c 1xf0
 248 270 244 276 268 224 c 1
 284 246 306 308 306 308 c 1
 346 252 l 1
 346 252 308 164 298 146 c 1
224 426 m 0xf0
 224 456 208 486 184 486 c 0
 160 486 136 454 136 424 c 0
 136 394 158 378 182 360 c 1
 204 380 224 394 224 426 c 0xf0
EndSplineSet
Validated: 1
EndChar

StartChar: at
Encoding: 64 64 92
Width: 415
VWidth: 693
Flags: W
HStem: 0 56<195.257 324.488> 108 52<222.834 278.975> 388 50<219.854 279.613> 504 52<202.411 270.873>
VStem: 70 46<168.345 378.111> 162 48<167.919 381.491> 290 56<168.031 378.48>
LayerCount: 2
Fore
SplineSet
250 388 m 0
 212 388 208 330 208 294 c 0
 208 284 210 276 210 272 c 0
 210 270 210 268 210 266 c 0
 210 240 210 160 250 160 c 0
 284 160 290 208 290 242 c 0
 290 258 288 268 288 272 c 0
 288 278 290 290 290 302 c 0
 290 338 284 388 250 388 c 0
290 420 m 1
 286 446 270 504 250 504 c 0
 182 504 116 368 116 272 c 0
 116 178 170 56 252 56 c 0
 274 56 306 60 340 82 c 1
 344 86 l 1
 344 36 l 1
 340 32 334 22 298 12 c 0
 274 6 262 0 252 0 c 0
 142 0 70 184 70 272 c 0
 70 390 140 556 250 556 c 0
 284 556 296 538 312 510 c 0
 344 454 346 332 346 288 c 2
 346 272 l 2
 346 222 324 108 250 108 c 0
 188 108 162 182 162 272 c 0
 162 366 186 438 250 438 c 0
 276 438 270 434 282 424 c 0
 284 422 288 422 290 420 c 1
EndSplineSet
Validated: 1
EndChar

StartChar: asciitilde
Encoding: 126 126 93
Width: 415
VWidth: 693
Flags: W
HStem: 156 72<226.464 319.929> 224 74<96.3705 191.536>
VStem: 70 276
LayerCount: 2
Fore
SplineSet
346 276 m 1xa0
 346 202 l 1
 346 202 306 156 278 156 c 0xa0
 222 156 196 224 140 224 c 0
 110 224 70 176 70 176 c 1
 70 250 l 1
 70 250 110 298 140 298 c 0x60
 196 298 222 228 278 228 c 0
 306 228 346 276 346 276 c 1xa0
EndSplineSet
Validated: 1
EndChar

StartChar: grave
Encoding: 96 96 94
Width: 415
VWidth: 693
Flags: W
HStem: 348 208<210 236>
VStem: 142 132
LayerCount: 2
Fore
SplineSet
142 556 m 1
 236 556 l 1
 274 348 l 1
 210 348 l 1
 142 556 l 1
EndSplineSet
Validated: 1
EndChar

StartChar: exclamdown
Encoding: 161 161 159
Width: 415
VWidth: 693
Flags: W
HStem: 0 21G<170 250> 0 21G<170 250> 424 132<162.067 256.886>
VStem: 142 134<444.25 535.75> 170 80<0 366>
LayerCount: 2
Fore
SplineSet
170 0 m 1xa8
 170 366 l 1
 250 366 l 1
 250 0 l 1
 170 0 l 1xa8
142 490 m 0x30
 142 524 176 556 210 556 c 0
 244 556 276 524 276 490 c 0
 276 456 244 424 210 424 c 0
 176 424 142 456 142 490 c 0x30
EndSplineSet
Validated: 1
EndChar

StartChar: brokenbar
Encoding: 166 166 164
Width: 415
VWidth: 693
Flags: W
VStem: 178 62<-72 270 340 626>
LayerCount: 2
Fore
SplineSet
240 270 m 1
 240 -72 l 1
 178 -72 l 1
 178 270 l 1
 240 270 l 1
240 626 m 1
 240 340 l 1
 178 340 l 1
 178 626 l 1
 240 626 l 1
EndSplineSet
Validated: 1
EndChar

StartChar: dieresis
Encoding: 168 168 166
Width: 415
VWidth: 693
Flags: W
HStem: 408 78<115.713 185.215 231.249 300.751>
VStem: 110 80<414.277 480.269> 226 80<413.249 482.751>
LayerCount: 2
Fore
SplineSet
110 448 m 0
 110 468 132 486 152 486 c 0
 172 486 190 468 190 448 c 0
 190 428 172 408 152 408 c 0
 132 408 110 428 110 448 c 0
226 448 m 0
 226 468 246 488 266 488 c 0
 286 488 306 468 306 448 c 0
 306 428 286 408 266 408 c 0
 246 408 226 428 226 448 c 0
EndSplineSet
Validated: 1
EndChar

StartChar: degree
Encoding: 176 176 173
Width: 415
VWidth: 693
Flags: W
HStem: 448 52<131.98 214.066> 604 52<131.98 214.066>
VStem: 72 50<510.618 593.382> 224 50<508.751 595.249>
LayerCount: 2
Fore
SplineSet
72 552 m 0
 72 610 118 656 174 656 c 0
 230 656 274 610 274 552 c 0
 274 494 230 448 174 448 c 0
 118 448 72 494 72 552 c 0
122 552 m 0
 122 522 146 500 174 500 c 0
 202 500 224 522 224 552 c 0
 224 582 202 604 174 604 c 0
 146 604 122 582 122 552 c 0
EndSplineSet
Validated: 1
EndChar

StartChar: plusminus
Encoding: 177 177 174
Width: 415
VWidth: 693
Flags: W
HStem: 90 78<70 346> 324 72<70 172 246 346>
VStem: 172 74<238 324 396 484>
LayerCount: 2
Fore
SplineSet
172 484 m 1
 246 484 l 1
 246 396 l 1
 346 396 l 1
 346 324 l 1
 246 324 l 1
 246 238 l 1
 172 238 l 1
 172 324 l 1
 70 324 l 1
 70 396 l 1
 172 396 l 1
 172 484 l 1
70 168 m 1
 346 168 l 1
 346 90 l 1
 70 90 l 1
 70 168 l 1
EndSplineSet
Validated: 1
EndChar

StartChar: acute
Encoding: 180 180 175
Width: 415
VWidth: 693
Flags: W
HStem: 406 150<184 204>
VStem: 138 140
LayerCount: 2
Fore
SplineSet
184 556 m 1
 278 556 l 1
 204 406 l 1
 138 406 l 1
 184 556 l 1
EndSplineSet
Validated: 1
EndChar

StartChar: cedilla
Encoding: 184 184 179
Width: 415
VWidth: 693
Flags: W
HStem: -142 28<176.464 234.431> -64 68<204 224.499>
VStem: 236 30<-112.006 -76.9584>
LayerCount: 2
Fore
SplineSet
266 -92 m 0
 266 -106 258 -142 202 -142 c 0
 182 -142 164 -130 152 -120 c 0
 150 -118 148 -116 142 -110 c 1
 164 -88 l 1
 170 -94 170 -94 174 -98 c 0
 188 -110 192 -114 202 -114 c 0
 220 -114 236 -112 236 -92 c 0
 236 -82 206 -68 196 -64 c 0
 192 -62 188 -60 188 -56 c 2
 204 4 l 1
 206 4 l 1
 232 4 l 1
 236 4 l 1
 224 -44 l 1
 236 -50 266 -68 266 -92 c 0
EndSplineSet
Validated: 1
EndChar

StartChar: questiondown
Encoding: 191 191 183
Width: 415
VWidth: 693
Flags: W
HStem: 0 68<151.483 255.451> 424 132<161.25 254.75>
VStem: 70 72<77.3353 174.234> 142 134<444.25 534.589> 172 74<243.76 375.969>
LayerCount: 2
Fore
SplineSet
274 116 m 1xe8
 346 116 l 1
 346 116 294 0 206 0 c 0
 130 0 70 44 70 134 c 0
 70 192 172 232 172 292 c 0
 172 334 172 376 172 376 c 1
 248 376 l 1
 248 376 246 334 246 292 c 0
 246 234 142 178 142 134 c 0
 142 84 158 68 206 68 c 0
 254 68 274 116 274 116 c 1xe8
276 490 m 0xd0
 276 456 242 424 208 424 c 0
 174 424 142 456 142 490 c 0
 142 524 172 556 206 556 c 0
 240 556 276 524 276 490 c 0xd0
EndSplineSet
Validated: 1
EndChar

StartChar: diaeresiscomb
Encoding: 256 776 248
Width: 415
VWidth: 693
Flags: W
HStem: 408 78<115.713 185.215 231.249 300.751>
VStem: 110 80<414.277 480.269> 226 80<413.249 482.751>
LayerCount: 2
Fore
SplineSet
110 448 m 0
 110 468 132 486 152 486 c 0
 172 486 190 468 190 448 c 0
 190 428 172 408 152 408 c 0
 132 408 110 428 110 448 c 0
226 448 m 0
 226 468 246 488 266 488 c 0
 286 488 306 468 306 448 c 0
 306 428 286 408 266 408 c 0
 246 408 226 428 226 448 c 0
EndSplineSet
Validated: 1
EndChar

StartChar: dotlessi
Encoding: 257 305 249
Width: 415
VWidth: 693
Flags: W
HStem: 0 70<240 346> 248 70<70 174>
VStem: 170 176<2.8125 70> 174 68<70 248>
LayerCount: 2
Fore
SplineSet
70 248 m 1xd0
 70 318 l 1
 208 318 l 2
 228 318 242 302 242 282 c 0xd0
 242 126 240 80 240 70 c 1
 346 70 l 1
 346 0 l 1
 206 0 l 2
 186 0 170 16 170 36 c 2xe0
 174 248 l 1
 70 248 l 1xd0
EndSplineSet
Validated: 1
EndChar

StartChar: acutecomb
Encoding: 258 769 250
Width: 415
VWidth: 693
Flags: W
HStem: 406 150<184 204>
VStem: 138 140
LayerCount: 2
Fore
SplineSet
184 556 m 1
 278 556 l 1
 204 406 l 1
 138 406 l 1
 184 556 l 1
EndSplineSet
Validated: 1
EndChar

StartChar: gravecomb
Encoding: 259 768 253
Width: 415
VWidth: 693
Flags: W
HStem: 406 150<214 232>
VStem: 138 140
LayerCount: 2
Fore
SplineSet
232 556 m 1
 278 406 l 1
 214 406 l 1
 138 556 l 1
 232 556 l 1
EndSplineSet
Validated: 1
EndChar

StartChar: fraction
Encoding: 260 8260 254
Width: 415
VWidth: 693
Flags: W
HStem: 0 21G<70 160.906> 0 21G<70 160.906> 536 20G<258.95 346>
VStem: 70 276
LayerCount: 2
Fore
SplineSet
346 556 m 1xb0
 154 0 l 1
 70 0 l 1
 266 556 l 1
 346 556 l 1xb0
EndSplineSet
Validated: 1
EndChar

StartChar: Scaron
Encoding: 160 352 255
Width: 415
VWidth: 831
Flags: W
HStem: 0 80<182.973 261.562> 490 66<157.086 238.728>
VStem: 70 76<382.068 477.795> 272 74<89.0667 202.571>
LayerCount: 2
Fore
SplineSet
74 748 m 1
 152 748 l 1
 206 690 l 1
 276 748 l 1
 350 748 l 1
 206 606 l 1
 74 748 l 1
EndSplineSet
Refer: 31 83 N 1 0 0 1 0 0 3
Validated: 1
EndChar

StartChar: circumflexcmb
Encoding: 261 770 257
Width: 415
VWidth: 693
Flags: W
HStem: 326 134
VStem: 70 276
LayerCount: 2
Fore
SplineSet
70 326 m 1
 206 460 l 1
 346 326 l 1
 272 326 l 1
 206 380 l 1
 148 326 l 1
 70 326 l 1
EndSplineSet
Validated: 1
EndChar

StartChar: tildecomb
Encoding: 262 771 258
Width: 415
VWidth: 693
Flags: W
HStem: 156 72<226.464 319.929> 224 74<96.3705 191.536>
VStem: 70 276
LayerCount: 2
Fore
SplineSet
346 276 m 1xa0
 346 202 l 1
 346 202 306 156 278 156 c 0xa0
 222 156 196 224 140 224 c 0
 110 224 70 176 70 176 c 1
 70 250 l 1
 70 250 110 298 140 298 c 0x60
 196 298 222 228 278 228 c 0
 306 228 346 276 346 276 c 1xa0
EndSplineSet
Validated: 1
EndChar

StartChar: cedillacmb
Encoding: 263 807 259
Width: 415
VWidth: 693
Flags: W
HStem: -142 28<176.464 234.431> -64 64<204 224.499>
VStem: 236 30<-112.006 -76.9584>
LayerCount: 2
Fore
SplineSet
266 -92 m 0
 266 -106 258 -142 202 -142 c 0
 182 -142 164 -130 152 -120 c 0
 150 -118 148 -116 142 -110 c 1
 164 -88 l 1
 170 -94 170 -94 174 -98 c 0
 188 -110 192 -114 202 -114 c 0
 220 -114 236 -112 236 -92 c 0
 236 -82 206 -68 196 -64 c 0
 192 -62 188 -60 188 -56 c 2
 204 0 l 1
 206 0 l 1
 232 0 l 1
 236 0 l 1
 224 -44 l 1
 236 -50 266 -68 266 -92 c 0
EndSplineSet
Validated: 1
EndChar

StartChar: ringcmb
Encoding: 264 778 260
Width: 415
VWidth: 693
Flags: W
HStem: 448 52<167.777 250.02> 604 52<167.777 250.02>
VStem: 106 52<508.751 595.249> 260 50<510.618 593.382>
LayerCount: 2
Fore
SplineSet
106 552 m 0
 106 610 152 656 208 656 c 0
 264 656 310 610 310 552 c 0
 310 494 264 448 208 448 c 0
 152 448 106 494 106 552 c 0
158 552 m 0
 158 522 180 500 208 500 c 0
 236 500 260 522 260 552 c 0
 260 582 236 604 208 604 c 0
 180 604 158 582 158 552 c 0
EndSplineSet
Validated: 1
EndChar

StartChar: acutedblnosp
Encoding: 265 779 261
Width: 415
VWidth: 693
Flags: W
HStem: 406 150<262 278 414 432>
VStem: 62 294
LayerCount: 2
Fore
SplineSet
110 556 m 1
 202 556 l 1
 126 406 l 1
 62 406 l 1
 110 556 l 1
262 556 m 1
 356 556 l 1
 280 406 l 1
 216 406 l 1
 262 556 l 1
EndSplineSet
Validated: 1
EndChar
